<?xml version="1.0" encoding="UTF-8" standalone="no"?>
<!-- Created with Inkscape (http://www.inkscape.org/) -->

<svg
   xmlns:dc="http://purl.org/dc/elements/1.1/"
   xmlns:cc="http://creativecommons.org/ns#"
   xmlns:rdf="http://www.w3.org/1999/02/22-rdf-syntax-ns#"
   xmlns:svg="http://www.w3.org/2000/svg"
   xmlns="http://www.w3.org/2000/svg"
   xmlns:sodipodi="http://sodipodi.sourceforge.net/DTD/sodipodi-0.dtd"
   xmlns:inkscape="http://www.inkscape.org/namespaces/inkscape"
   id="svg4400"
   sodipodi:version="0.32"
   inkscape:version="0.91 r13725"
   width="377.54675"
   height="467.59845"
   version="1.0"
   sodipodi:docname="Mapa XV Region.svg"
   inkscape:export-filename="C:\Users\ju_la\Dropbox\Proyectos\chilerunner\Assets\Menu\Sprites\MapaAricaSelected.png"
   inkscape:export-xdpi="122.02778"
   inkscape:export-ydpi="122.02778">
  <title
     id="title4139">Mapa XV Region</title>
  <metadata
     id="metadata4405">
    <rdf:RDF>
      <cc:Work
         rdf:about="">
        <dc:format>image/svg+xml</dc:format>
        <dc:type
           rdf:resource="http://purl.org/dc/dcmitype/StillImage" />
        <dc:title>Mapa XV Region</dc:title>
      </cc:Work>
    </rdf:RDF>
  </metadata>
  <defs
     id="defs4403" />
  <sodipodi:namedview
     inkscape:window-height="705"
     inkscape:window-width="1366"
     inkscape:pageshadow="2"
     inkscape:pageopacity="0.0"
     guidetolerance="10.0"
     gridtolerance="10.0"
     objecttolerance="10.0"
     borderopacity="1.0"
     bordercolor="#666666"
     pagecolor="#ffffff"
     id="base"
     inkscape:zoom="0.90338984"
     inkscape:cx="310.10289"
     inkscape:cy="232.96181"
     inkscape:window-x="-8"
     inkscape:window-y="-8"
     inkscape:current-layer="g11099"
     showguides="true"
     inkscape:guide-bbox="true"
     width="600px"
     height="500px"
     showgrid="false"
     inkscape:window-maximized="1"
     fit-margin-top="0"
     fit-margin-left="0"
     fit-margin-right="0"
     fit-margin-bottom="0" />
  <g
     id="g11099"
     transform="translate(-61.141995,-15.281647)">
    <path
       sodipodi:nodetypes="ccccccccccccccccccccccccccccccccccccccccc"
       d="m 61.823066,245.177 c 10.206953,-14.08555 27.926021,-14.03487 47.435514,-8.35252 l 13.56619,-0.43762 25.38188,-14.44142 20.56808,0 30.63332,-27.56998 8.75237,-13.12856 10.50285,-20.56808 c 3.48177,2.48102 9.20683,4.84148 4.37619,8.75237 -0.12378,5.78475 -6.3829,5.86089 3.06333,13.12856 4.16341,4.03 16.67851,1.34034 18.8176,6.56429 -1.00388,0.75291 -4.37618,2.24609 -4.37618,3.50094 1.09528,9.11206 0.525,14.32889 0.43762,23.63142 -1.35989,4.07032 -6.24134,5.13167 -7.87714,9.18999 -1.24781,6.55605 3.99861,6.38367 7.87714,10.50285 0.87145,4.93004 -3.60729,10.18748 2.62571,14.87904 3.53087,1.93289 7.35742,4.68174 8.31476,8.75237 2.08382,5.62134 8.05529,8.9003 10.06523,14.44142 4.21523,4.12107 0.35897,8.57127 0.87523,13.56618 1.64235,12.309 -6.90188,11.45113 10.06524,21.44332 6.17062,3.17374 11.91903,6.58305 16.62951,11.81571 2.12314,2.95755 3.4774,7.07157 4.8138,10.50285 0.48549,2.47314 0.80798,5.0074 0,7.43952 -1.55686,0 -5.31201,3.56153 -6.12666,4.37618 -3.40698,2.48619 -6.31129,0.15196 -11.37809,3.93857 -12.4841,-0.21477 -17.95918,2.05329 -28.44521,8.75238 -6.06884,1.65784 -25.68104,5.31504 -31.07093,8.75237 -16.38785,5.26482 -12.27094,8.78814 -21.0057,8.31476 -10.86253,9.33365 -18.01177,3.10941 -21.44332,6.56428 -6.43011,1.95496 -13.79983,2.02433 -19.69285,5.68904 l 0,11.37809 -66.955666,-21.0057 -18.817606,3.93857 c -0.943472,-2.61793 -0.379526,-5.41336 -0.407495,-8.11739 -0.410309,-4.97448 -2.909477,-1.78654 -0.195716,-15.16908 6.893138,-1.90138 2.683094,-8.36811 0.990452,-12.62205 3.190776,-2.08028 4.581282,-6.95344 2.667845,-10.993 -0.949773,-4.32836 -5.376944,-9.82487 -0.767909,-13.55792 6.175955,-7.15737 -6.248203,-15.12983 -1.588758,-13.71034 5.011942,-3.79409 5.788672,-9.58343 7.819593,-14.85867 C 89.372406,270.21371 77.833085,258.32135 61.823066,245.177 Z"
       style="fill:#d76cff;fill-opacity:1;fill-rule:evenodd;stroke:#d38d5f;stroke-width:1px;stroke-linecap:butt;stroke-linejoin:miter;stroke-opacity:1"
       id="Arica"
       inkscape:connector-curvature="0" />
    <path
       inkscape:label="#path7131"
       sodipodi:nodetypes="cccccccccccccccccccccccccccccccc"
       d="m 340.80223,140.73098 2.4252,-0.59927 c -4.62026,-6.91774 -5.22888,-17.82593 -2.19515,-24.62033 6.18024,-15.41935 -11.56768,-23.43422 -9.0388,-36.505257 l -32.80836,-32.983418 0,-27.569981 -51.20139,42.0114 -31.94617,-4.376188 -10.94622,12.690944 0,13.458881 7.00765,4.045869 0,28.0076 11.81571,19.69284 0.43761,13.56618 -5.68904,13.12857 c 3.48177,2.48102 9.20683,4.84148 4.37619,8.75237 -0.12378,5.78475 -6.3829,5.86089 3.06333,13.12856 4.16341,4.03 16.67851,1.34034 18.8176,6.56429 1.86306,0.29195 3.74747,0.18555 5.6239,0.13523 2.72462,0.26235 4.07439,-1.67751 2.81324,-3.98541 -2.7956,-1.19066 -4.00538,-2.65475 -5.1576,-5.39203 -1.84396,-3.92314 1.1667,-7.10002 3.04767,-10.3152 1.40536,-2.84602 -1.72363,-4.00824 -1.87549,-6.79865 1.23233,-3.81903 1.46915,-7.71936 2.81323,-11.48737 6.91863,-0.25251 15.3203,-2.1489 16.87941,-6.32978 5.23136,-2.55178 11.86495,-3.85048 17.34828,-1.40662 2.14852,0.85941 1.8576,-0.81605 3.28211,-1.17218 4.71769,0.13472 9.49758,-0.83509 14.06617,0.46888 0.95238,0.19047 3.83503,3.14944 3.98541,3.75098 3.59083,1.00525 6.26912,-1.86489 11.72181,-2.5788 2.77628,-1.09852 5.1407,-0.0197 8.90858,-2.10993 4.12556,-0.48543 8.32091,-0.60618 12.42512,-1.17218 z"
       style="fill:#f1caff;fill-opacity:1;fill-rule:evenodd;stroke:#d38d5f;stroke-width:1;stroke-linecap:butt;stroke-linejoin:miter;stroke-miterlimit:4;stroke-dasharray:none;stroke-opacity:1"
       id="General_Lagos"
       inkscape:connector-curvature="0" />
    <path
       inkscape:label="#path8023"
       id="Camarones"
       style="fill:#f1caff;fill-opacity:1;fill-rule:evenodd;stroke:#d38d5f;stroke-width:1px;stroke-linecap:butt;stroke-linejoin:miter;stroke-opacity:1"
       d="m 294.37131,338.78965 c -1.55686,0 -5.31201,3.56153 -6.12666,4.37618 -3.40698,2.48619 -6.31129,0.15196 -11.37809,3.93857 -12.4841,-0.21477 -17.95918,2.05329 -28.44521,8.75238 -6.06884,1.65784 -25.68104,5.31504 -31.07093,8.75237 -16.38785,5.26482 -12.27094,8.78814 -21.0057,8.31476 -10.86253,9.33365 -18.01177,3.10941 -21.44332,6.56428 -6.43011,1.95496 -13.79983,2.02433 -19.69285,5.68904 l 0,11.37809 -66.955666,-21.0057 -18.817606,3.93857 c 3.811398,1.78352 0.634616,5.26717 0.565538,9.23616 -0.06908,3.96898 2.851154,5.38943 4.016215,10.26366 1.307636,5.68703 4.58263,9.88987 5.8012,15.61861 5.9061,7.1448 0.559509,6.63894 0.446246,11.6024 0,2.03258 5.905538,8.24111 6.693693,9.81742 2.1104,4.52884 3.224593,9.45574 4.462461,14.27987 0.578325,2.3133 -0.04872,2.62876 3.123723,5.8012 2.297436,4.14515 0.23069,9.58469 -3.123722,12.4949 5.184018,3.92278 -2.800755,11.64798 -3.123724,12.94113 26.850112,-13.86303 39.022662,-23.99241 52.657042,-32.57597 15.86803,-2.70953 25.53376,-9.55393 34.36096,-16.95735 10.14099,4.00982 22.31129,-5.57262 33.02221,-0.44625 22.09323,-8.25844 28.60832,-5.38964 42.83963,-8.03243 16.53619,-1.07601 16.6324,1.13598 22.31231,2.23123 10.16215,-0.18024 24.69948,-3.27727 24.98978,3.12373 2.60173,-0.94662 5.45146,-0.43248 8.03243,-1.33874 5.04664,-0.78482 6.67444,3.65638 6.6937,7.58618 2.03072,7.37263 10.9477,5.27234 16.95735,6.24745 6.3192,2.41988 5.44773,8.86266 10.26366,12.94114 3.82638,-0.88144 6.91664,-4.42001 10.70991,-6.24745 6.88411,-1.50972 18.37843,-6.73501 24.98978,-7.58618 4.4471,-0.73597 11.4381,1.56782 13.83363,-3.12373 1.91749,-4.18555 9.33117,-5.96609 8.47868,-11.15615 -5.24376,-6.07159 -9.60557,-13.16453 -13.83363,-14.27988 -2.10708,-5.96221 -5.4566,-11.20949 -8.03243,-16.95735 1.64923,-5.21494 0.58941,-9.2236 0.44625,-13.38738 1.37078,-5.21055 -1.58668,-11.82119 -4.01622,-16.06487 -2.80551,-3.03751 -4.03957,-0.99842 -15.17237,-2.23122 -6.10571,-2.47566 -12.06963,1.05621 -21.41982,6.24744 -3.57672,4.48473 -9.75659,3.63803 -14.27987,1.33874 -8.40683,-3.15119 -7.76481,-10.43599 -9.37117,-16.06487 -4.13632,-3.08245 -6.33231,-7.86842 -9.81742,-11.60239 -1.64226,-1.64227 -6.52875,-4.06483 -8.56999,-4.41759 z"
       sodipodi:nodetypes="ccccccccccczcccccccccccccccccccccccccccccccc"
       inkscape:connector-curvature="0" />
    <path
       sodipodi:nodetypes="cccccccccccccccccccccccccccccccccccccccccccccccccsccsccc"
       d="m 398.43798,426.20902 c -5.24376,-6.07159 -9.60557,-13.16453 -13.83363,-14.27988 -2.10708,-5.96221 -5.4566,-11.20949 -8.03243,-16.95735 1.64923,-5.21494 0.58941,-9.2236 0.44625,-13.38738 1.37078,-5.21055 -1.58668,-11.82119 -4.01622,-16.06487 -2.80551,-3.03751 -4.03957,-0.99842 -15.17237,-2.23122 -6.10571,-2.47566 -12.06963,1.05621 -21.41982,6.24744 -3.57672,4.48473 -9.75659,3.63803 -14.27987,1.33874 -8.40683,-3.15119 -7.76481,-10.43599 -9.37117,-16.06487 -4.13632,-3.08245 -6.33231,-7.86842 -9.81742,-11.60239 -1.64226,-1.64227 -6.52875,-4.06483 -8.56999,-4.41759 0.80798,-2.43212 0.48549,-4.96638 0,-7.43952 -1.3364,-3.43128 -2.69066,-7.5453 -4.8138,-10.50285 -4.71048,-5.23266 -10.45889,-8.64197 -16.62951,-11.81571 -16.96712,-9.99219 -8.42289,-9.13432 -10.06524,-21.44332 -0.51626,-4.99491 3.34,-9.44511 -0.87523,-13.56618 -2.00994,-5.54112 -7.98141,-8.82008 -10.06523,-14.44142 -0.95734,-4.07063 -4.78389,-6.81948 -8.31476,-8.75237 -6.233,-4.69156 -1.75426,-9.949 -2.62571,-14.87904 -3.87853,-4.11918 -9.12495,-3.9468 -7.87714,-10.50285 1.6358,-4.05832 6.51725,-5.11967 7.87714,-9.18999 0.0874,-9.30253 0.65766,-14.51936 -0.43762,-23.63142 0,-1.25485 3.3723,-2.74803 4.37618,-3.50094 1.86306,0.29195 3.74747,0.18555 5.6239,0.13523 2.72462,0.26235 4.07439,-1.67751 2.81324,-3.98541 -2.7956,-1.19066 -4.00538,-2.65475 -5.1576,-5.39203 -1.84396,-3.92314 1.1667,-7.10002 3.04767,-10.3152 1.40536,-2.84602 -1.72363,-4.00824 -1.87549,-6.79865 1.23233,-3.81903 1.46915,-7.71936 2.81323,-11.48737 6.91863,-0.25251 15.3203,-2.1489 16.87941,-6.32978 5.23136,-2.55178 11.86495,-3.85048 17.34828,-1.40662 2.14852,0.85941 1.8576,-0.81605 3.28211,-1.17218 4.71769,0.13472 9.49758,-0.83509 14.06617,0.46888 0.95238,0.19047 3.83503,3.14944 3.98541,3.75098 3.59083,1.00525 6.26912,-1.86489 11.72181,-2.5788 2.77628,-1.09852 5.1407,-0.0197 8.90858,-2.10993 4.12556,-0.48543 8.32091,-0.60618 12.42512,-1.17218 l 2.41377,-0.61642 c 1.8915,2.84564 4.47874,5.02991 7.77632,5.96455 2.22291,-5.14972 4.07807,10.40628 11.59826,4.84493 11.32248,4.80095 24.93769,1.09893 30.5179,13.44291 8.02371,1.528 13.77524,10.63561 2.79984,14.29007 -2.8393,9.29124 -22.75948,12.61238 -11.65639,23.53149 -0.12911,14.05959 22.89113,6.18698 16.37867,23.35502 -4.07867,7.07977 0.0281,11.1917 6.13342,14.73896 -7.67922,10.64036 -3.17076,26.63288 2.54595,37.95777 10.18294,8.24821 0.21411,25.31265 2.00563,36.86554 -10.94222,6.16988 7.15745,8.34668 4.07452,18.4239 7.01665,12.395 -2.24134,11.74118 13.82454,35.67033 3.69616,8.96192 6.50112,24.37946 7.31583,23.47712 3.67112,-4.066 -9.53515,8.01315 -8.5533,13.54983 -1.58325,-0.46119 -3.38029,-1.21164 -4.54943,0.34721 -0.73372,1.8337 -0.98867,6.95011 -2.26983,5.7323 -0.71065,-0.6755 -2.77958,-2.25485 -5.7626,3.19262 -8.77822,-2.06974 -8.10926,7.96866 -14.72612,11.15616 -0.74374,-0.14875 -1.48749,-0.2975 -2.23123,-0.44625 z"
       style="fill:#f1caff;fill-opacity:1;fill-rule:evenodd;stroke:#d38d5f;stroke-width:1;stroke-linecap:butt;stroke-linejoin:miter;stroke-miterlimit:4;stroke-dasharray:none;stroke-opacity:1"
       id="Putre"
       inkscape:connector-curvature="0" />
    <path
       sodipodi:nodetypes="cscccccccccccccccccccccccccccccc"
       d="m 427.97719,406.22698 c -0.98185,-5.53668 12.22442,-17.61583 8.5533,-13.54983 -0.81471,0.90234 -3.61967,-14.5152 -7.31583,-23.47712 -16.06588,-23.92915 -6.80789,-23.27533 -13.82454,-35.67033 3.08293,-10.07722 -15.01674,-12.25402 -4.07452,-18.4239 -1.79152,-11.55289 8.17731,-28.61733 -2.00563,-36.86554 -5.71671,-11.32489 -10.22517,-27.31741 -2.54595,-37.95777 -6.10529,-3.54726 -10.21209,-7.65919 -6.13342,-14.73896 6.51246,-17.16804 -16.50778,-9.29543 -16.37867,-23.35502 -11.10309,-10.91911 8.81709,-14.24025 11.65639,-23.53149 10.9754,-3.65446 5.22387,-12.76207 -2.79984,-14.29007 -5.58021,-12.34398 -19.19542,-8.64196 -30.5179,-13.44291 -7.52019,5.56135 -9.37535,-9.99465 -11.59826,-4.84493 -11.26791,-3.19367 -14.24184,-20.97813 -9.96004,-30.56773 6.18024,-15.41935 -11.56768,-23.43422 -9.0388,-36.505257 l -32.80836,-32.983418 0,-27.569981 -51.20139,42.0114 -31.94617,-4.376188 -10.94622,12.690944 0,13.458881 7.00765,4.045869 0,28.0076 11.81571,19.69284 0.43761,13.56618 -16.19189,33.69665 -8.75237,13.12856 -30.63332,27.56998 -20.56808,0 -25.38188,14.44142 -13.56619,0.43762 c -19.509493,-5.68235 -36.18063,-5.33318 -46.387583,8.75237"
       style="fill:none;fill-rule:evenodd;stroke:#d76cff;stroke-width:3;stroke-linecap:butt;stroke-linejoin:miter;stroke-miterlimit:4;stroke-opacity:1"
       id="LÃMITE INTER"
       inkscape:connector-curvature="0" />
    <path
       sodipodi:nodetypes="cccccccccccccccccscc"
       id="path6551"
       d="m 88.2831,481.54727 c 26.85011,-13.86304 39.02187,-24.01019 52.65625,-32.59375 15.86803,-2.70952 25.5478,-9.53408 34.375,-16.9375 10.14099,4.00982 22.32033,-5.56387 33.03125,-0.4375 22.09323,-8.25843 28.61244,-5.41971 42.84375,-8.0625 16.53619,-1.07602 16.63259,1.15475 22.3125,2.25 10.16215,-0.18026 24.67845,-3.276 24.96875,3.125 2.60173,-0.94662 5.45028,-0.43749 8.03125,-1.34375 5.04663,-0.78482 6.66824,3.66395 6.6875,7.59375 2.03071,7.37263 10.9591,5.27489 16.96875,6.25 6.31921,2.41989 5.46532,8.85902 10.28125,12.9375 3.82638,-0.88145 6.89423,-4.42256 10.6875,-6.25 6.88412,-1.50971 18.38865,-6.74258 25,-7.59375 4.44711,-0.73596 11.44822,1.56655 13.84375,-3.125 1.91748,-4.18555 9.32124,-5.96619 8.46875,-11.15625 0.74374,0.14875 1.47501,0.28875 2.21875,0.4375 6.61686,-3.1875 5.97177,-13.22599 14.75,-11.15625 2.98302,-5.44747 5.03936,-3.863 5.75,-3.1875 1.28116,1.21781 1.54754,-3.88505 2.28125,-5.71875 1.16914,-1.55885 2.948,-0.80495 4.53125,-0.34375"
       style="fill:none;fill-opacity:1;fill-rule:evenodd;stroke:#d76cff;stroke-width:3;stroke-linecap:butt;stroke-linejoin:miter;stroke-miterlimit:4;stroke-dasharray:none;stroke-opacity:1"
       inkscape:connector-curvature="0" />
  </g>
</svg>
