<svg xmlns="http://www.w3.org/2000/svg" viewBox="0 0 433.2 474.4"><defs><style>.cls-1{fill:#29abe2;}.cls-2{fill:#4d4d4d;}.cls-3,.cls-7{fill:#fff;}.cls-4{fill:#f4d0c3;}.cls-5{fill:#ceb3ab;}.cls-6{fill:#593f1e;}.cls-7{stroke:#fff;stroke-width:3px;}.cls-7,.cls-9{stroke-linecap:round;}.cls-7,.cls-8,.cls-9{stroke-miterlimit:10;}.cls-8,.cls-9{fill:none;stroke-width:2px;}.cls-8{stroke:#d3a794;}.cls-9{stroke:#f2f2f2;}.cls-10{fill:#8cc63f;}.cls-11{fill:#e6e6e6;}.cls-12,.cls-13{isolation:isolate;font-family:ArialMT, Arial;}.cls-12{font-size:12px;}.cls-13{font-size:9px;}.cls-14{letter-spacing:-0.04em;}</style></defs><title>Demo</title><g id="Layer_2" data-name="Layer 2"><g id="Layer_1-2" data-name="Layer 1"><g id="Layer_2-2" data-name="Layer 2"><g id="Layer_1-2-2" data-name="Layer 1-2"><rect class="cls-1" width="433.2" height="474.3"/><path class="cls-2" d="M228.2,370.4h0a17.88,17.88,0,0,1-17.9-17.9V312.6a17.88,17.88,0,0,1,17.9-17.9h0a17.88,17.88,0,0,1,17.9,17.9v39.9A17.88,17.88,0,0,1,228.2,370.4Z"/><path d="M251.8,400.8H207.2a6.91,6.91,0,0,1-6.9-6.9h0a6.91,6.91,0,0,1,6.9-6.9h44.6a6.91,6.91,0,0,1,6.9,6.9h0A7,7,0,0,1,251.8,400.8Z"/><path d="M83.6,287.4h87.6a9.82,9.82,0,0,1,9.8,9.8V401a9.82,9.82,0,0,1-9.8,9.8H83.6a9.82,9.82,0,0,1-9.8-9.8V297.2A9.82,9.82,0,0,1,83.6,287.4Z"/><polygon class="cls-3" points="96.2 287.4 129.4 329.1 152.2 287.4 96.2 287.4"/><path class="cls-3" d="M50.5,304.2V347a16.88,16.88,0,0,1-16.9,16.9h0A16.88,16.88,0,0,1,16.7,347V304.2a16.79,16.79,0,0,1,16.9-16.8h0A16.79,16.79,0,0,1,50.5,304.2Z"/><circle class="cls-4" cx="33.7" cy="391.3" r="15.4"/><path class="cls-4" d="M118.1,246l6.8,1.8a46.71,46.71,0,0,0,22.6.1h0a46,46,0,0,0,30.9-26.1l6.9-15.7a44.28,44.28,0,0,1,3.9-7.1l5.8-8.7c.1-1.5.1-3,.1-4.6,0-46.5-27.6-84.2-61.6-84.2S72,139.1,72,185.6a115,115,0,0,0,1.9,21.1l20.5,24.4A46.55,46.55,0,0,0,118.1,246Z"/><path class="cls-5" d="M189.2,198.9a49,49,0,0,0-3.9,7.1l-6.9,15.7a46,46,0,0,1-30.9,26.1h0a45.52,45.52,0,0,1-22.6-.1l-6.8-1.7a46.14,46.14,0,0,1-23.7-14.9L73.9,206.7c6.8,36.3,30.9,63.1,59.6,63.1,32.9,0,59.7-35.3,61.5-79.7Z"/><polygon points="84.8 134.9 74 165.3 72 233.1 37.7 155.7 50 73.1 117.3 33.1 195.1 39.8 227.2 144.7 198.2 230.2 194.1 167.6 175.7 124.6 144.4 112.6 178 140.2 122.8 114.8 139.2 135.7 101.1 120.1 84.8 134.9"/><circle class="cls-3" cx="33.7" cy="438.5" r="17"/><circle class="cls-6" cx="79.5" cy="437.9" r="8.5"/><polygon class="cls-7" points="161.6 426.1 157.1 450.3 120.6 447.9 110.3 431.9 161.6 426.1"/><path class="cls-8" d="M124.8,190.3c-4.6,2.1-8.1,8.1-3,10.8,10.8,5.6,26.2-2.6,26.1-7.4,0-1.4-1.4-3.2-6.7-5.2"/><path d="M127.2,212.4"/><polygon class="cls-5" points="97.8 216.2 110.6 206 162 203 172.1 212.4 97.8 216.2"/><line class="cls-9" x1="159.4" y1="438.2" x2="136.6" y2="438.8"/><rect x="194.3" y="436.2" width="51.7" height="4.6"/><circle class="cls-4" cx="228.2" cy="312.6" r="2.6"/><rect class="cls-10" x="278.6" y="17.6" width="154.6" height="456.8"/><rect class="cls-10" width="433.2" height="17.6"/><circle class="cls-11" cx="33.7" cy="304.4" r="0.6"/></g></g><text class="cls-12" transform="translate(119.28 163.35)">Cabeza</text><text class="cls-13" transform="translate(12.07 325.66)">Mitad de Brazo</text><text class="cls-13" transform="translate(24.33 393.95)">Mano</text><text class="cls-13" transform="translate(24.33 440.81)">Ojo</text><text class="cls-13" transform="translate(70.97 455.45)">Iris</text><text class="cls-13" transform="translate(124.21 461.21)">Boca</text><text class="cls-13" transform="translate(210.31 455.45)">Ceja</text><text class="cls-13" transform="translate(216.6 410.88)">Zapato</text><text class="cls-13" transform="translate(251.86 329.09)">Mitad de Pierna</text><text class="cls-13" transform="translate(115.53 298.21)"><tspan class="cls-14">T</tspan><tspan x="5.16" y="0">ronco</tspan></text><rect class="cls-2" x="333.61" y="174.97" width="14.08" height="27.11" rx="7.04" ry="7.04" transform="translate(54.25 -75.22) rotate(13.68)"/><rect class="cls-2" x="331.64" y="192.91" width="14.08" height="27.11" rx="7.04" ry="7.04"/><rect x="322.91" y="217.23" width="22.91" height="5.39" rx="2.7" ry="2.7"/><rect class="cls-2" x="358.44" y="174.68" width="14.08" height="27.11" rx="7.04" ry="7.04" transform="translate(765.12 284.69) rotate(166.32)"/><rect class="cls-2" x="360.41" y="192.62" width="14.08" height="27.11" rx="7.04" ry="7.04" transform="translate(734.89 412.35) rotate(-180)"/><rect x="360.31" y="216.94" width="22.91" height="5.39" rx="2.7" ry="2.7" transform="translate(743.53 439.27) rotate(180)"/><rect x="331.94" y="133.63" width="42.13" height="48.5" rx="9.82" ry="9.82"/><polygon class="cls-3" points="340.74 133.63 353.77 150.01 362.71 133.63 340.74 133.63"/><rect class="cls-3" x="362.44" y="138.46" width="24.94" height="13.24" rx="6.62" ry="6.62" transform="translate(256.73 -239.16) rotate(51.75)"/><rect class="cls-3" x="367.49" y="152.49" width="24.94" height="13.24" rx="6.62" ry="6.62" transform="translate(539.07 -220.85) rotate(90)"/><circle class="cls-4" cx="380.51" cy="173.83" r="6.07"/><rect class="cls-3" x="317.94" y="139.06" width="24.94" height="13.24" rx="6.62" ry="6.62" transform="translate(649.37 -23.6) rotate(128.25)"/><rect class="cls-3" x="313.28" y="152.7" width="24.94" height="13.24" rx="6.62" ry="6.62" transform="translate(485.07 -166.44) rotate(90)"/><circle class="cls-4" cx="325.2" cy="174.04" r="6.07"/><path class="cls-4" d="M346,127.19l2.69.69a18,18,0,0,0,8.87,0h0a18,18,0,0,0,12.12-10.25l2.7-6.15a18,18,0,0,1,1.54-2.8l2.29-3.42c0-.6,0-1.2,0-1.8,0-18.27-10.83-33.09-24.18-33.09s-24.18,14.81-24.18,33.09a44.78,44.78,0,0,0,.76,8.29l8.06,9.56A18,18,0,0,0,346,127.19Z"/><path class="cls-5" d="M373.87,108.72a18,18,0,0,0-1.54,2.8l-2.7,6.15a18,18,0,0,1-12.12,10.25h0a18,18,0,0,1-8.87,0l-2.69-.69a18,18,0,0,1-9.3-5.84l-8.06-9.56c2.69,14.26,12.15,24.8,23.42,24.8,12.91,0,23.46-13.85,24.14-31.29Z"/><polygon points="332.86 83.56 328.63 95.52 327.84 122.13 314.36 91.73 319.21 59.27 345.64 43.58 376.2 46.22 388.8 87.41 377.4 121.02 375.81 96.39 368.58 79.52 356.27 74.81 369.46 85.65 347.77 75.69 354.22 83.89 339.27 77.74 332.86 83.56"/><circle class="cls-3" cx="340.37" cy="92.74" r="6.67"/><circle class="cls-6" cx="340.37" cy="92.74" r="3.33"/><circle class="cls-3" cx="362.02" cy="92.74" r="6.67"/><circle class="cls-6" cx="362.02" cy="92.74" r="3.33"/><rect x="329.22" y="82.94" width="18.77" height="2.18" transform="translate(10.33 -34.08) rotate(5.85)"/><rect x="353.81" y="81.53" width="18.77" height="2.18"/><polygon class="cls-7" points="361.39 115.49 359.61 124.97 345.28 124.04 341.23 117.75 361.39 115.49"/><path class="cls-8" d="M348.57,105.32c-1.8.81-3.19,3.2-1.18,4.25,4.24,2.2,10.29-1,10.24-2.92,0-.55-.54-1.26-2.63-2.06"/><path d="M349.53,114"/><polygon class="cls-5" points="337.97 115.49 343 111.5 363.2 110.31 367.16 114.02 337.97 115.49"/><line class="cls-9" x1="360.5" y1="120.23" x2="351.58" y2="120.47"/><text class="cls-13" transform="translate(328.6 233.1)">Demostración</text></g></g></svg>